<?xml version="1.0" standalone="no"?><!DOCTYPE svg PUBLIC "-//W3C//DTD SVG 1.1//EN" "http://www.w3.org/Graphics/SVG/1.1/DTD/svg11.dtd"><svg xmlns:xlink="http://www.w3.org/1999/xlink" version="1.1" class="highcharts-root" style="font-family:&quot;Lucida Grande&quot;, &quot;Lucida Sans Unicode&quot;, Arial, Helvetica, sans-serif;font-size:12px;" xmlns="http://www.w3.org/2000/svg" width="1500" height="900" viewBox="0 0 1500 900"><desc>Created with Highcharts 7.0.1</desc><defs><clipPath id="highcharts-cpdnncb-125"><rect x="0" y="0" width="1429" height="750" fill="none"></rect></clipPath></defs><rect fill="#ffffff" class="highcharts-background" x="0" y="0" width="1500" height="900" rx="0" ry="0"></rect><rect fill="none" class="highcharts-plot-background" x="61" y="59" width="1429" height="750"></rect><g class="highcharts-grid highcharts-xaxis-grid " data-z-index="1"><path fill="none" data-z-index="1" class="highcharts-grid-line" d="M 104.5 59 L 104.5 809" opacity="1"></path><path fill="none" data-z-index="1" class="highcharts-grid-line" d="M 181.5 59 L 181.5 809" opacity="1"></path><path fill="none" data-z-index="1" class="highcharts-grid-line" d="M 257.5 59 L 257.5 809" opacity="1"></path><path fill="none" data-z-index="1" class="highcharts-grid-line" d="M 333.5 59 L 333.5 809" opacity="1"></path><path fill="none" data-z-index="1" class="highcharts-grid-line" d="M 409.5 59 L 409.5 809" opacity="1"></path><path fill="none" data-z-index="1" class="highcharts-grid-line" d="M 485.5 59 L 485.5 809" opacity="1"></path><path fill="none" data-z-index="1" class="highcharts-grid-line" d="M 561.5 59 L 561.5 809" opacity="1"></path><path fill="none" data-z-index="1" class="highcharts-grid-line" d="M 637.5 59 L 637.5 809" opacity="1"></path><path fill="none" data-z-index="1" class="highcharts-grid-line" d="M 714.5 59 L 714.5 809" opacity="1"></path><path fill="none" data-z-index="1" class="highcharts-grid-line" d="M 790.5 59 L 790.5 809" opacity="1"></path><path fill="none" data-z-index="1" class="highcharts-grid-line" d="M 866.5 59 L 866.5 809" opacity="1"></path><path fill="none" data-z-index="1" class="highcharts-grid-line" d="M 942.5 59 L 942.5 809" opacity="1"></path><path fill="none" data-z-index="1" class="highcharts-grid-line" d="M 1018.5 59 L 1018.5 809" opacity="1"></path><path fill="none" data-z-index="1" class="highcharts-grid-line" d="M 1094.5 59 L 1094.5 809" opacity="1"></path><path fill="none" data-z-index="1" class="highcharts-grid-line" d="M 1170.5 59 L 1170.5 809" opacity="1"></path><path fill="none" data-z-index="1" class="highcharts-grid-line" d="M 1247.5 59 L 1247.5 809" opacity="1"></path><path fill="none" data-z-index="1" class="highcharts-grid-line" d="M 1323.5 59 L 1323.5 809" opacity="1"></path><path fill="none" data-z-index="1" class="highcharts-grid-line" d="M 1399.5 59 L 1399.5 809" opacity="1"></path><path fill="none" data-z-index="1" class="highcharts-grid-line" d="M 1475.5 59 L 1475.5 809" opacity="1"></path></g><g class="highcharts-grid highcharts-yaxis-grid " data-z-index="1"><path fill="none" stroke="#e6e6e6" stroke-width="1" data-z-index="1" class="highcharts-grid-line" d="M 61 809.5 L 1490 809.5" opacity="1"></path><path fill="none" stroke="#e6e6e6" stroke-width="1" data-z-index="1" class="highcharts-grid-line" d="M 61 755.5 L 1490 755.5" opacity="1"></path><path fill="none" stroke="#e6e6e6" stroke-width="1" data-z-index="1" class="highcharts-grid-line" d="M 61 702.5 L 1490 702.5" opacity="1"></path><path fill="none" stroke="#e6e6e6" stroke-width="1" data-z-index="1" class="highcharts-grid-line" d="M 61 648.5 L 1490 648.5" opacity="1"></path><path fill="none" stroke="#e6e6e6" stroke-width="1" data-z-index="1" class="highcharts-grid-line" d="M 61 595.5 L 1490 595.5" opacity="1"></path><path fill="none" stroke="#e6e6e6" stroke-width="1" data-z-index="1" class="highcharts-grid-line" d="M 61 541.5 L 1490 541.5" opacity="1"></path><path fill="none" stroke="#e6e6e6" stroke-width="1" data-z-index="1" class="highcharts-grid-line" d="M 61 488.5 L 1490 488.5" opacity="1"></path><path fill="none" stroke="#e6e6e6" stroke-width="1" data-z-index="1" class="highcharts-grid-line" d="M 61 434.5 L 1490 434.5" opacity="1"></path><path fill="none" stroke="#e6e6e6" stroke-width="1" data-z-index="1" class="highcharts-grid-line" d="M 61 380.5 L 1490 380.5" opacity="1"></path><path fill="none" stroke="#e6e6e6" stroke-width="1" data-z-index="1" class="highcharts-grid-line" d="M 61 327.5 L 1490 327.5" opacity="1"></path><path fill="none" stroke="#e6e6e6" stroke-width="1" data-z-index="1" class="highcharts-grid-line" d="M 61 273.5 L 1490 273.5" opacity="1"></path><path fill="none" stroke="#e6e6e6" stroke-width="1" data-z-index="1" class="highcharts-grid-line" d="M 61 220.5 L 1490 220.5" opacity="1"></path><path fill="none" stroke="#e6e6e6" stroke-width="1" data-z-index="1" class="highcharts-grid-line" d="M 61 166.5 L 1490 166.5" opacity="1"></path><path fill="none" stroke="#e6e6e6" stroke-width="1" data-z-index="1" class="highcharts-grid-line" d="M 61 113.5 L 1490 113.5" opacity="1"></path><path fill="none" stroke="#e6e6e6" stroke-width="1" data-z-index="1" class="highcharts-grid-line" d="M 61 58.5 L 1490 58.5" opacity="1"></path></g><rect fill="none" class="highcharts-plot-border" data-z-index="1" x="61" y="59" width="1429" height="750"></rect><g class="highcharts-axis highcharts-xaxis " data-z-index="2"><path fill="none" class="highcharts-tick" stroke="#ccd6eb" stroke-width="1" d="M 104.5 809 L 104.5 819" opacity="1"></path><path fill="none" class="highcharts-tick" stroke="#ccd6eb" stroke-width="1" d="M 181.5 809 L 181.5 819" opacity="1"></path><path fill="none" class="highcharts-tick" stroke="#ccd6eb" stroke-width="1" d="M 257.5 809 L 257.5 819" opacity="1"></path><path fill="none" class="highcharts-tick" stroke="#ccd6eb" stroke-width="1" d="M 333.5 809 L 333.5 819" opacity="1"></path><path fill="none" class="highcharts-tick" stroke="#ccd6eb" stroke-width="1" d="M 409.5 809 L 409.5 819" opacity="1"></path><path fill="none" class="highcharts-tick" stroke="#ccd6eb" stroke-width="1" d="M 485.5 809 L 485.5 819" opacity="1"></path><path fill="none" class="highcharts-tick" stroke="#ccd6eb" stroke-width="1" d="M 561.5 809 L 561.5 819" opacity="1"></path><path fill="none" class="highcharts-tick" stroke="#ccd6eb" stroke-width="1" d="M 637.5 809 L 637.5 819" opacity="1"></path><path fill="none" class="highcharts-tick" stroke="#ccd6eb" stroke-width="1" d="M 714.5 809 L 714.5 819" opacity="1"></path><path fill="none" class="highcharts-tick" stroke="#ccd6eb" stroke-width="1" d="M 790.5 809 L 790.5 819" opacity="1"></path><path fill="none" class="highcharts-tick" stroke="#ccd6eb" stroke-width="1" d="M 866.5 809 L 866.5 819" opacity="1"></path><path fill="none" class="highcharts-tick" stroke="#ccd6eb" stroke-width="1" d="M 942.5 809 L 942.5 819" opacity="1"></path><path fill="none" class="highcharts-tick" stroke="#ccd6eb" stroke-width="1" d="M 1018.5 809 L 1018.5 819" opacity="1"></path><path fill="none" class="highcharts-tick" stroke="#ccd6eb" stroke-width="1" d="M 1094.5 809 L 1094.5 819" opacity="1"></path><path fill="none" class="highcharts-tick" stroke="#ccd6eb" stroke-width="1" d="M 1170.5 809 L 1170.5 819" opacity="1"></path><path fill="none" class="highcharts-tick" stroke="#ccd6eb" stroke-width="1" d="M 1247.5 809 L 1247.5 819" opacity="1"></path><path fill="none" class="highcharts-tick" stroke="#ccd6eb" stroke-width="1" d="M 1323.5 809 L 1323.5 819" opacity="1"></path><path fill="none" class="highcharts-tick" stroke="#ccd6eb" stroke-width="1" d="M 1399.5 809 L 1399.5 819" opacity="1"></path><path fill="none" class="highcharts-tick" stroke="#ccd6eb" stroke-width="1" d="M 1475.5 809 L 1475.5 819" opacity="1"></path><text x="775.5" data-z-index="7" text-anchor="middle" transform="translate(0,0)" class="highcharts-axis-title" style="color:#666666;fill:#666666;" y="846"><tspan>Année</tspan></text><path fill="none" class="highcharts-axis-line" stroke="#ccd6eb" stroke-width="1" data-z-index="7" d="M 61 809.5 L 1490 809.5"></path></g><g class="highcharts-axis highcharts-yaxis " data-z-index="2"><text x="23.484375" data-z-index="7" text-anchor="middle" transform="translate(0,0) rotate(270 23.484375 434)" class="highcharts-axis-title" style="color:#666666;fill:#666666;" y="434"><tspan>Répartition de la population en %</tspan></text><path fill="none" class="highcharts-axis-line" data-z-index="7" d="M 61 59 L 61 809"></path></g><g class="highcharts-series-group" data-z-index="3"><g data-z-index="0.1" class="highcharts-series highcharts-series-0 highcharts-spline-series highcharts-color-0 " transform="translate(61,59) scale(1 1)" clip-path="url(#highcharts-cpdnncb-125)"><path fill="none" d="M 14.009803921569 52.500000000000114 C 14.009803921569 52.500000000000114 82.5401653705176 61.3281208442198 128.22707300315 67.5 C 158.679452392522 71.61383512993406 173.905642087208 71.6428571428569 204.35802147658 78.21428571428578 C 219.584211171264 81.49999999999979 227.197306018606 86.14449962848602 242.42349571329 92.14285714285722 C 257.65802395655 98.14449962848602 265.27528807818 100.71223260724977 280.50981632144 108.21428571428578 C 295.73600601612395 115.71223260724977 303.349100863466 120.85714285714405 318.57529055815 129.64285714285722 C 333.80148025283796 138.42857142857264 341.414575100182 143.35714285714178 356.64076479487 152.14285714285722 C 371.866954489554 160.92857142857036 379.480049336896 165.85925462437996 394.70623903158 173.57142857142867 C 409.94076727483997 181.28782605295137 417.55803139646997 183.6409213562242 432.79255963973 190.71428571428578 C 448.018749334418 197.7837784990813 455.63184418176195 204.6426437640026 470.85803387645 208.92857142857144 C 489.127793800358 214.07121519257404 498.262673762312 209.65756532624025 516.53243368622 214.28571428571433 C 528.715053151684 217.3718510405259 534.806362884416 221.16827424400415 546.98898234988 228.21428571428567 C 562.22351059314 237.02541710114699 569.84077471477 246.42651832153547 585.07530295803 253.9285714285715 C 600.3014926527139 261.42651832153547 607.9145875000561 261.0000000000006 623.14077719474 265.7142857142857 C 638.366966889428 270.42857142857207 645.9800617367721 271.714285714285 661.20625143146 277.5 C 676.432441126144 283.2857142857135 684.045535973486 288.0000000000009 699.27172566817 294.64285714285717 C 714.4979153628581 301.2857142857152 722.111010210202 305.1428571428564 737.33719990489 310.7142857142857 C 752.563389599574 316.28571428571354 760.176484446916 317.14285714285785 775.4026741416 322.50000000000006 C 790.6288638362879 327.85714285714363 798.241958683632 332.2152504367319 813.46814837832 337.50000000000006 C 843.928866316264 348.0723932938747 859.1592252852361 349.570281333924 889.61994322318 362.14285714285717 C 904.8461329178641 368.42742419106685 912.459227765206 374.5714285714299 927.68541745989 384.64285714285717 C 942.911607154578 394.7142857142871 950.524702001922 412.5 965.75089169661 412.5 C 980.9770813912859 412.5 1003.8163659333 411.42857142857144 1003.8163659333 411.42857142857144" class="highcharts-graph" data-z-index="1" stroke="#ECED36" stroke-width="2" stroke-linejoin="round" stroke-linecap="round"></path></g><g data-z-index="0.1" class="highcharts-markers highcharts-series-0 highcharts-spline-series highcharts-color-0 " transform="translate(61,59) scale(1 1)" clip-path="none"><path fill="#ECED36" d="M 18 53 A 4 4 0 1 1 17.99999800000017 52.99600000066666 Z" class="highcharts-point highcharts-color-0"></path><path fill="#ECED36" d="M 132 68 A 4 4 0 1 1 131.99999800000018 67.99600000066667 Z" class="highcharts-point highcharts-color-0"></path><path fill="#ECED36" d="M 208 78 A 4 4 0 1 1 207.99999800000018 77.99600000066667 Z" class="highcharts-point highcharts-color-0"></path><path fill="#ECED36" d="M 246 92 A 4 4 0 1 1 245.99999800000018 91.99600000066667 Z" class="highcharts-point highcharts-color-0"></path><path fill="#ECED36" d="M 284 108 A 4 4 0 1 1 283.9999980000002 107.99600000066667 Z" class="highcharts-point highcharts-color-0"></path><path fill="#ECED36" d="M 322 130 A 4 4 0 1 1 321.9999980000002 129.99600000066667 Z" class="highcharts-point highcharts-color-0"></path><path fill="#ECED36" d="M 360 152 A 4 4 0 1 1 359.9999980000002 151.99600000066667 Z" class="highcharts-point highcharts-color-0"></path><path fill="#ECED36" d="M 398 174 A 4 4 0 1 1 397.9999980000002 173.99600000066667 Z" class="highcharts-point highcharts-color-0"></path><path fill="#ECED36" d="M 436 191 A 4 4 0 1 1 435.9999980000002 190.99600000066667 Z" class="highcharts-point highcharts-color-0"></path><path fill="#ECED36" d="M 474 209 A 4 4 0 1 1 473.9999980000002 208.99600000066667 Z" class="highcharts-point highcharts-color-0"></path><path fill="#ECED36" d="M 520 214 A 4 4 0 1 1 519.9999980000001 213.99600000066667 Z" class="highcharts-point highcharts-color-0"></path><path fill="#ECED36" d="M 550 228 A 4 4 0 1 1 549.9999980000001 227.99600000066667 Z" class="highcharts-point highcharts-color-0"></path><path fill="#ECED36" d="M 589 254 A 4 4 0 1 1 588.9999980000001 253.99600000066667 Z" class="highcharts-point highcharts-color-0"></path><path fill="#ECED36" d="M 627 266 A 4 4 0 1 1 626.9999980000001 265.99600000066664 Z" class="highcharts-point highcharts-color-0"></path><path fill="#ECED36" d="M 665 278 A 4 4 0 1 1 664.9999980000001 277.99600000066664 Z" class="highcharts-point highcharts-color-0"></path><path fill="#ECED36" d="M 703 295 A 4 4 0 1 1 702.9999980000001 294.99600000066664 Z" class="highcharts-point highcharts-color-0"></path><path fill="#ECED36" d="M 741 311 A 4 4 0 1 1 740.9999980000001 310.99600000066664 Z" class="highcharts-point highcharts-color-0"></path><path fill="#ECED36" d="M 779 323 A 4 4 0 1 1 778.9999980000001 322.99600000066664 Z" class="highcharts-point highcharts-color-0"></path><path fill="#ECED36" d="M 817 338 A 4 4 0 1 1 816.9999980000001 337.99600000066664 Z" class="highcharts-point highcharts-color-0"></path><path fill="#ECED36" d="M 893 362 A 4 4 0 1 1 892.9999980000001 361.99600000066664 Z" class="highcharts-point highcharts-color-0"></path><path fill="#ECED36" d="M 931 385 A 4 4 0 1 1 930.9999980000001 384.99600000066664 Z" class="highcharts-point highcharts-color-0"></path><path fill="#ECED36" d="M 969 413 A 4 4 0 1 1 968.9999980000001 412.99600000066664 Z" class="highcharts-point highcharts-color-0"></path><path fill="#ECED36" d="M 1007 411 A 4 4 0 1 1 1006.9999980000001 410.99600000066664 Z" class="highcharts-point highcharts-color-0"></path></g><g data-z-index="0.1" class="highcharts-series highcharts-series-1 highcharts-spline-series highcharts-color-1 " transform="translate(61,59) scale(1 1)" clip-path="url(#highcharts-cpdnncb-125)"><path fill="none" d="M 14.009803921569 531.4285714285714 C 14.009803921569 531.4285714285714 82.5401653705176 526.4574056980147 128.22707300315 522.8571428571429 C 158.679452392522 520.4574056980147 173.905642087208 520.1428571428573 204.35802147658 516.4285714285714 C 219.584211171264 514.5714285714287 227.197306018606 512.3562042939263 242.42349571329 508.92857142857144 C 257.65802395655 505.4990614367836 265.27528807818 503.78694614993594 280.50981632144 499.28571428571433 C 295.73600601612395 494.78694614993594 303.349100863466 492.214285714285 318.57529055815 486.42857142857144 C 333.80148025283796 480.64285714285637 341.414575100182 477.0000000000009 356.64076479487 470.3571428571429 C 371.866954489554 463.7142857142866 379.480049336896 460.28377849908037 394.70623903158 453.2142857142857 C 409.94076727483997 446.1409213562232 417.55803139646997 435.00000000000006 432.79255963973 435.00000000000006 C 448.018749334418 435.00000000000006 455.63184418176195 441.42857142857133 470.85803387645 443.57142857142856 C 489.127793800358 445.7142857142858 498.262673762312 445.7142857142858 516.53243368622 445.7142857142858 C 528.715053151684 445.7142857142858 534.806362884416 439.61848279457774 546.98898234988 437.14285714285717 C 562.22351059314 434.04705422314913 569.84077471477 431.78571428571433 585.07530295803 431.78571428571433 C 600.3014926527139 431.78571428571433 607.9145875000561 435.00000000000006 623.14077719474 435.00000000000006 C 638.366966889428 435.00000000000006 645.9800617367721 435.00000000000006 661.20625143146 431.78571428571433 C 676.432441126144 428.5714285714286 684.045535973486 417.85714285714295 699.27172566817 413.5714285714286 C 714.4979153628581 409.2857142857143 722.111010210202 411.21428571428595 737.33719990489 409.2857142857143 C 752.563389599574 407.3571428571431 760.176484446916 406.71428571428544 775.4026741416 403.9285714285715 C 790.6288638362879 401.1428571428569 798.241958683632 397.35677782702817 813.46814837832 395.3571428571429 C 843.928866316264 391.35677782702817 859.1592252852361 395.3571428571429 889.61994322318 388.92857142857144 C 904.8461329178641 382.5 912.459227765206 366.42857142857144 927.68541745989 362.14285714285717 C 942.911607154578 357.8571428571429 950.524702001922 357.8571428571429 965.75089169661 357.8571428571429 C 980.9770813912859 357.8571428571429 1003.8163659333 390 1003.8163659333 390" class="highcharts-graph" data-z-index="1" stroke="#4C65A8" stroke-width="2" stroke-linejoin="round" stroke-linecap="round"></path></g><g data-z-index="0.1" class="highcharts-markers highcharts-series-1 highcharts-spline-series highcharts-color-1 " transform="translate(61,59) scale(1 1)" clip-path="none"><path fill="#4C65A8" d="M 14 527 L 18 531 14 535 10 531 Z" class="highcharts-point highcharts-color-1"></path><path fill="#4C65A8" d="M 128 519 L 132 523 128 527 124 523 Z" class="highcharts-point highcharts-color-1"></path><path fill="#4C65A8" d="M 204 512 L 208 516 204 520 200 516 Z" class="highcharts-point highcharts-color-1"></path><path fill="#4C65A8" d="M 242 505 L 246 509 242 513 238 509 Z" class="highcharts-point highcharts-color-1"></path><path fill="#4C65A8" d="M 280 495 L 284 499 280 503 276 499 Z" class="highcharts-point highcharts-color-1"></path><path fill="#4C65A8" d="M 318 482 L 322 486 318 490 314 486 Z" class="highcharts-point highcharts-color-1"></path><path fill="#4C65A8" d="M 356 466 L 360 470 356 474 352 470 Z" class="highcharts-point highcharts-color-1"></path><path fill="#4C65A8" d="M 394 449 L 398 453 394 457 390 453 Z" class="highcharts-point highcharts-color-1"></path><path fill="#4C65A8" d="M 432 431 L 436 435 432 439 428 435 Z" class="highcharts-point highcharts-color-1"></path><path fill="#4C65A8" d="M 470 440 L 474 444 470 448 466 444 Z" class="highcharts-point highcharts-color-1"></path><path fill="#4C65A8" d="M 516 442 L 520 446 516 450 512 446 Z" class="highcharts-point highcharts-color-1"></path><path fill="#4C65A8" d="M 546 433 L 550 437 546 441 542 437 Z" class="highcharts-point highcharts-color-1"></path><path fill="#4C65A8" d="M 585 428 L 589 432 585 436 581 432 Z" class="highcharts-point highcharts-color-1"></path><path fill="#4C65A8" d="M 623 431 L 627 435 623 439 619 435 Z" class="highcharts-point highcharts-color-1"></path><path fill="#4C65A8" d="M 661 428 L 665 432 661 436 657 432 Z" class="highcharts-point highcharts-color-1"></path><path fill="#4C65A8" d="M 699 410 L 703 414 699 418 695 414 Z" class="highcharts-point highcharts-color-1"></path><path fill="#4C65A8" d="M 737 405 L 741 409 737 413 733 409 Z" class="highcharts-point highcharts-color-1"></path><path fill="#4C65A8" d="M 775 400 L 779 404 775 408 771 404 Z" class="highcharts-point highcharts-color-1"></path><path fill="#4C65A8" d="M 813 391 L 817 395 813 399 809 395 Z" class="highcharts-point highcharts-color-1"></path><path fill="#4C65A8" d="M 889 385 L 893 389 889 393 885 389 Z" class="highcharts-point highcharts-color-1"></path><path fill="#4C65A8" d="M 927 358 L 931 362 927 366 923 362 Z" class="highcharts-point highcharts-color-1"></path><path fill="#4C65A8" d="M 965 354 L 969 358 965 362 961 358 Z" class="highcharts-point highcharts-color-1"></path><path fill="#4C65A8" d="M 1003 386 L 1007 390 1003 394 999 390 Z" class="highcharts-point highcharts-color-1"></path></g><g data-z-index="0.1" class="highcharts-series highcharts-series-2 highcharts-spline-series highcharts-color-2 " transform="translate(61,59) scale(1 1)" clip-path="url(#highcharts-cpdnncb-125)"><path fill="none" d="M 14.009803921569 594.6428571428571 C 14.009803921569 594.6428571428571 82.5401653705176 590.7859020291942 128.22707300315 588.2142857142858 C 158.679452392522 586.5001877434798 173.905642087208 586.7857142857143 204.35802147658 583.9285714285714 C 219.584211171264 582.5000000000001 227.197306018606 580.0707246490164 242.42349571329 577.5 C 257.65802395655 574.927867506159 265.27528807818 574.0722498142429 280.50981632144 571.0714285714286 C 295.73600601612395 568.0722498142429 303.349100863466 565.2857142857139 318.57529055815 562.5 C 333.80148025283796 559.7142857142854 341.414575100182 559.2857142857146 356.64076479487 557.1428571428571 C 371.866954489554 555.0000000000002 379.480049336896 551.7857142857143 394.70623903158 551.7857142857143 C 409.94076727483997 551.7857142857143 417.55803139646997 551.7857142857143 432.79255963973 551.7857142857143 C 448.018749334418 551.7857142857143 455.63184418176195 532.1106902805938 470.85803387645 526.0714285714287 C 489.127793800358 518.8249759948795 498.262673762312 521.656861211078 516.53243368622 518.5714285714286 C 528.715053151684 516.5140040682207 534.806362884416 517.7846715328467 546.98898234988 513.2142857142858 C 562.22351059314 507.49895724713247 569.84077471477 499.93050721520535 585.07530295803 492.8571428571429 C 600.3014926527139 485.7876500723483 607.9145875000561 482.57142857142804 623.14077719474 477.8571428571429 C 638.366966889428 473.14285714285654 645.9800617367721 469.28571428571433 661.20625143146 469.28571428571433 C 676.432441126144 469.28571428571433 684.045535973486 470.3571428571429 699.27172566817 470.3571428571429 C 714.4979153628581 470.3571428571429 722.111010210202 462.21428571428623 737.33719990489 458.5714285714286 C 752.563389599574 454.9285714285719 760.176484446916 454.71428571428544 775.4026741416 452.14285714285717 C 790.6288638362879 449.57142857142827 798.241958683632 449.1422313769462 813.46814837832 445.7142857142858 C 843.928866316264 438.85651709123186 859.1592252852361 426.42857142857144 889.61994322318 426.42857142857144 C 904.8461329178641 426.42857142857144 912.459227765206 431.78571428571433 927.68541745989 431.78571428571433 C 942.911607154578 431.78571428571433 950.524702001922 419.14285714286154 965.75089169661 408.2142857142858 C 980.9770813912859 397.28571428571865 1003.8163659333 377.1428571428572 1003.8163659333 377.1428571428572" class="highcharts-graph" data-z-index="1" stroke="#F04327" stroke-width="2" stroke-linejoin="round" stroke-linecap="round"></path></g><g data-z-index="0.1" class="highcharts-markers highcharts-series-2 highcharts-spline-series highcharts-color-2 " transform="translate(61,59) scale(1 1)" clip-path="none"><path fill="#F04327" d="M 10 591 L 18 591 18 599 10 599 Z" class="highcharts-point highcharts-color-2"></path><path fill="#F04327" d="M 124 584 L 132 584 132 592 124 592 Z" class="highcharts-point highcharts-color-2"></path><path fill="#F04327" d="M 200 580 L 208 580 208 588 200 588 Z" class="highcharts-point highcharts-color-2"></path><path fill="#F04327" d="M 238 574 L 246 574 246 582 238 582 Z" class="highcharts-point highcharts-color-2"></path><path fill="#F04327" d="M 276 567 L 284 567 284 575 276 575 Z" class="highcharts-point highcharts-color-2"></path><path fill="#F04327" d="M 314 559 L 322 559 322 567 314 567 Z" class="highcharts-point highcharts-color-2"></path><path fill="#F04327" d="M 352 553 L 360 553 360 561 352 561 Z" class="highcharts-point highcharts-color-2"></path><path fill="#F04327" d="M 390 548 L 398 548 398 556 390 556 Z" class="highcharts-point highcharts-color-2"></path><path fill="#F04327" d="M 428 548 L 436 548 436 556 428 556 Z" class="highcharts-point highcharts-color-2"></path><path fill="#F04327" d="M 466 522 L 474 522 474 530 466 530 Z" class="highcharts-point highcharts-color-2"></path><path fill="#F04327" d="M 512 515 L 520 515 520 523 512 523 Z" class="highcharts-point highcharts-color-2"></path><path fill="#F04327" d="M 542 509 L 550 509 550 517 542 517 Z" class="highcharts-point highcharts-color-2"></path><path fill="#F04327" d="M 581 489 L 589 489 589 497 581 497 Z" class="highcharts-point highcharts-color-2"></path><path fill="#F04327" d="M 619 474 L 627 474 627 482 619 482 Z" class="highcharts-point highcharts-color-2"></path><path fill="#F04327" d="M 657 465 L 665 465 665 473 657 473 Z" class="highcharts-point highcharts-color-2"></path><path fill="#F04327" d="M 695 466 L 703 466 703 474 695 474 Z" class="highcharts-point highcharts-color-2"></path><path fill="#F04327" d="M 733 455 L 741 455 741 463 733 463 Z" class="highcharts-point highcharts-color-2"></path><path fill="#F04327" d="M 771 448 L 779 448 779 456 771 456 Z" class="highcharts-point highcharts-color-2"></path><path fill="#F04327" d="M 809 442 L 817 442 817 450 809 450 Z" class="highcharts-point highcharts-color-2"></path><path fill="#F04327" d="M 885 422 L 893 422 893 430 885 430 Z" class="highcharts-point highcharts-color-2"></path><path fill="#F04327" d="M 923 428 L 931 428 931 436 923 436 Z" class="highcharts-point highcharts-color-2"></path><path fill="#F04327" d="M 961 404 L 969 404 969 412 961 412 Z" class="highcharts-point highcharts-color-2"></path><path fill="#F04327" d="M 999 373 L 1007 373 1007 381 999 381 Z" class="highcharts-point highcharts-color-2"></path></g><g data-z-index="0.1" class="highcharts-series highcharts-series-3 highcharts-spline-series highcharts-color-3 " transform="translate(61,59) scale(1 1)" clip-path="url(#highcharts-cpdnncb-125)"><path fill="none" d="M 699.27172566817 290.3571428571429 C 699.27172566817 290.3571428571429 722.111010210202 300.8571428571422 737.33719990489 306.4285714285715 C 752.563389599574 311.9999999999994 760.176484446916 312.85714285714363 775.4026741416 318.2142857142858 C 790.6288638362879 323.5714285714293 798.241958683632 328.6436914974052 813.46814837832 333.2142857142858 C 843.928866316264 342.35797721169087 859.1592252852361 339.92742419106685 889.61994322318 352.5 C 904.8461329178641 358.7845670482097 912.459227765206 369.6428571428586 927.68541745989 380.3571428571429 C 942.911607154578 391.07142857143003 950.524702001922 406.07142857142856 965.75089169661 406.07142857142856 C 980.9770813912859 406.07142857142856 988.590176238624 397.50000000000006 1003.8163659333 397.50000000000006 C 1034.27708387126 397.50000000000006 1049.50744284024 400.5496796318007 1079.9681607782 411.42857142857144 C 1089.10721001444 414.69253677465787 1093.67673463256 424.99760963101767 1102.8157838688 432.8571428571429 C 1121.0855437927198 448.5690382024463 1130.22042375468 451.5692321578832 1148.4901836786 470.3571428571429 C 1169.81185238028 492.2835178721689 1180.4726867311201 510.40844265256516 1201.7943554328 534.6428571428571 C 1220.06411535672 555.4084426525651 1229.1989953186799 562.5046445682922 1247.4687552426 582.8571428571429 C 1265.74685371508 603.2189302825778 1274.88590295132 621.425149115093 1293.1640014238 636.4285714285714 C 1311.43376134772 651.425149115093 1320.56864130968 650.6124937779928 1338.8384012336 657.8571428571429 C 1354.07292947684 663.8982080637071 1361.69019359846 664.2842477806913 1376.9247218417 669.6428571428571 C 1392.15091153638 674.9985334949771 1414.9901960784 684.6428571428571 1414.9901960784 684.6428571428571" class="highcharts-graph" data-z-index="1" stroke="#CDE034" stroke-width="2" stroke-linejoin="round" stroke-linecap="round"></path></g><g data-z-index="0.1" class="highcharts-markers highcharts-series-3 highcharts-spline-series highcharts-color-3 " transform="translate(61,59) scale(1 1)" clip-path="none"><path fill="#CDE034" d="M 699 286 L 703 294 695 294 Z" class="highcharts-point highcharts-color-3"></path><path fill="#CDE034" d="M 737 302 L 741 310 733 310 Z" class="highcharts-point highcharts-color-3"></path><path fill="#CDE034" d="M 775 314 L 779 322 771 322 Z" class="highcharts-point highcharts-color-3"></path><path fill="#CDE034" d="M 813 329 L 817 337 809 337 Z" class="highcharts-point highcharts-color-3"></path><path fill="#CDE034" d="M 889 349 L 893 357 885 357 Z" class="highcharts-point highcharts-color-3"></path><path fill="#CDE034" d="M 927 376 L 931 384 923 384 Z" class="highcharts-point highcharts-color-3"></path><path fill="#CDE034" d="M 965 402 L 969 410 961 410 Z" class="highcharts-point highcharts-color-3"></path><path fill="#CDE034" d="M 1003 394 L 1007 402 999 402 Z" class="highcharts-point highcharts-color-3"></path><path fill="#CDE034" d="M 1079 407 L 1083 415 1075 415 Z" class="highcharts-point highcharts-color-3"></path><path fill="#CDE034" d="M 1102 429 L 1106 437 1098 437 Z" class="highcharts-point highcharts-color-3"></path><path fill="#CDE034" d="M 1148 466 L 1152 474 1144 474 Z" class="highcharts-point highcharts-color-3"></path><path fill="#CDE034" d="M 1201 531 L 1205 539 1197 539 Z" class="highcharts-point highcharts-color-3"></path><path fill="#CDE034" d="M 1247 579 L 1251 587 1243 587 Z" class="highcharts-point highcharts-color-3"></path><path fill="#CDE034" d="M 1293 632 L 1297 640 1289 640 Z" class="highcharts-point highcharts-color-3"></path><path fill="#CDE034" d="M 1338 654 L 1342 662 1334 662 Z" class="highcharts-point highcharts-color-3"></path><path fill="#CDE034" d="M 1376 666 L 1380 674 1372 674 Z" class="highcharts-point highcharts-color-3"></path><path fill="#CDE034" d="M 1414 681 L 1418 689 1410 689 Z" class="highcharts-point highcharts-color-3"></path></g><g data-z-index="0.1" class="highcharts-series highcharts-series-4 highcharts-spline-series highcharts-color-4 " transform="translate(61,59) scale(1 1)" clip-path="url(#highcharts-cpdnncb-125)"><path fill="none" d="M 699.27172566817 416.7857142857143 C 699.27172566817 416.7857142857143 722.111010210202 414.4285714285717 737.33719990489 412.5 C 752.563389599574 410.57142857142884 760.176484446916 409.9285714285711 775.4026741416 407.14285714285717 C 790.6288638362879 404.35714285714255 798.241958683632 399.64285714285717 813.46814837832 398.5714285714286 C 843.928866316264 397.50000000000006 859.1592252852361 398.5714285714286 889.61994322318 397.50000000000006 C 904.8461329178641 396.4285714285715 912.459227765206 366.4285714285715 927.68541745989 364.28571428571433 C 942.911607154578 362.14285714285717 950.524702001922 362.14285714285717 965.75089169661 362.14285714285717 C 980.9770813912859 362.14285714285717 988.590176238624 401.78571428571433 1003.8163659333 401.78571428571433 C 1043.4161331075 401.78571428571433 1063.2160166946 400.6359818855492 1102.8157838688 395.3571428571429 C 1121.0855437927198 392.92169617126353 1130.22042375468 388.43302443134525 1148.4901836786 382.50000000000006 C 1169.81185238028 375.57588157420236 1180.4726867311201 370.36920808761 1201.7943554328 363.2142857142857 C 1220.06411535672 357.0834938018957 1229.1989953186799 354.42739806395036 1247.4687552426 349.28571428571433 C 1265.74685371508 344.14168377823603 1274.88590295132 337.50000000000006 1293.1640014238 337.50000000000006 C 1311.43376134772 337.50000000000006 1320.56864130968 356.7319561970991 1338.8384012336 372.85714285714283 C 1354.07292947684 386.30338476852774 1361.69019359846 398.56790895937365 1376.9247218417 411.42857142857144 C 1392.15091153638 424.2821946736593 1414.9901960784 437.14285714285717 1414.9901960784 437.14285714285717" class="highcharts-graph" data-z-index="1" stroke="#41A1B5" stroke-width="2" stroke-linejoin="round" stroke-linecap="round"></path></g><g data-z-index="0.1" class="highcharts-markers highcharts-series-4 highcharts-spline-series highcharts-color-4 " transform="translate(61,59) scale(1 1)" clip-path="none"><path fill="#41A1B5" d="M 695 413 L 703 413 699 421 Z" class="highcharts-point highcharts-color-4"></path><path fill="#41A1B5" d="M 733 409 L 741 409 737 417 Z" class="highcharts-point highcharts-color-4"></path><path fill="#41A1B5" d="M 771 403 L 779 403 775 411 Z" class="highcharts-point highcharts-color-4"></path><path fill="#41A1B5" d="M 809 395 L 817 395 813 403 Z" class="highcharts-point highcharts-color-4"></path><path fill="#41A1B5" d="M 885 394 L 893 394 889 402 Z" class="highcharts-point highcharts-color-4"></path><path fill="#41A1B5" d="M 923 360 L 931 360 927 368 Z" class="highcharts-point highcharts-color-4"></path><path fill="#41A1B5" d="M 961 358 L 969 358 965 366 Z" class="highcharts-point highcharts-color-4"></path><path fill="#41A1B5" d="M 999 398 L 1007 398 1003 406 Z" class="highcharts-point highcharts-color-4"></path><path fill="#41A1B5" d="M 1098 391 L 1106 391 1102 399 Z" class="highcharts-point highcharts-color-4"></path><path fill="#41A1B5" d="M 1144 379 L 1152 379 1148 387 Z" class="highcharts-point highcharts-color-4"></path><path fill="#41A1B5" d="M 1197 359 L 1205 359 1201 367 Z" class="highcharts-point highcharts-color-4"></path><path fill="#41A1B5" d="M 1243 345 L 1251 345 1247 353 Z" class="highcharts-point highcharts-color-4"></path><path fill="#41A1B5" d="M 1289 334 L 1297 334 1293 342 Z" class="highcharts-point highcharts-color-4"></path><path fill="#41A1B5" d="M 1334 369 L 1342 369 1338 377 Z" class="highcharts-point highcharts-color-4"></path><path fill="#41A1B5" d="M 1372 407 L 1380 407 1376 415 Z" class="highcharts-point highcharts-color-4"></path><path fill="#41A1B5" d="M 1410 433 L 1418 433 1414 441 Z" class="highcharts-point highcharts-color-4"></path></g><g data-z-index="0.1" class="highcharts-series highcharts-series-5 highcharts-spline-series highcharts-color-5 " transform="translate(61,59) scale(1 1)" clip-path="url(#highcharts-cpdnncb-125)"><path fill="none" d="M 699.27172566817 472.50000000000006 C 699.27172566817 472.50000000000006 722.111010210202 463.5000000000005 737.33719990489 459.64285714285717 C 752.563389599574 455.7857142857148 760.176484446916 455.785714285714 775.4026741416 453.2142857142857 C 790.6288638362879 450.6428571428568 798.241958683632 450.0708288790972 813.46814837832 446.7857142857143 C 843.928866316264 440.21368602195435 859.1592252852361 428.5714285714286 889.61994322318 428.5714285714286 C 904.8461329178641 428.5714285714286 912.459227765206 433.92857142857144 927.68541745989 433.92857142857144 C 942.911607154578 433.92857142857144 950.524702001922 421.28571428571865 965.75089169661 410.3571428571429 C 980.9770813912859 399.42857142857576 988.590176238624 385.9509614339984 1003.8163659333 379.2857142857143 C 1043.4161331075 361.9509614339984 1063.2160166946 365.020584602716 1102.8157838688 350.3571428571429 C 1121.0855437927198 343.59201317414454 1130.22042375468 338.5691719822002 1148.4901836786 325.7142857142857 C 1169.81185238028 310.71202912505737 1180.4726867311201 297.79377783125346 1201.7943554328 280.7142857142858 C 1220.06411535672 266.07949211696774 1229.1989953186799 261.6393859391862 1247.4687552426 246.42857142857144 C 1265.74685371508 231.2108145106148 1274.88590295132 224.36164075485755 1293.1640014238 204.64285714285722 C 1311.43376134772 184.9330693262861 1320.56864130968 171.22697859633666 1338.8384012336 147.8571428571429 C 1354.07292947684 128.36983573919383 1361.69019359846 115.50492745687704 1376.9247218417 97.50000000000011 C 1392.15091153638 79.50492745687708 1414.9901960784 57.857142857143 1414.9901960784 57.857142857143" class="highcharts-graph" data-z-index="1" stroke="#D75D7F" stroke-width="2" stroke-linejoin="round" stroke-linecap="round"></path></g><g data-z-index="0.1" class="highcharts-markers highcharts-series-5 highcharts-spline-series highcharts-color-5 " transform="translate(61,59) scale(1 1)" clip-path="none"><path fill="#D75D7F" d="M 703 473 A 4 4 0 1 1 702.9999980000001 472.99600000066664 Z" class="highcharts-point highcharts-color-5"></path><path fill="#D75D7F" d="M 741 460 A 4 4 0 1 1 740.9999980000001 459.99600000066664 Z" class="highcharts-point highcharts-color-5"></path><path fill="#D75D7F" d="M 779 453 A 4 4 0 1 1 778.9999980000001 452.99600000066664 Z" class="highcharts-point highcharts-color-5"></path><path fill="#D75D7F" d="M 817 447 A 4 4 0 1 1 816.9999980000001 446.99600000066664 Z" class="highcharts-point highcharts-color-5"></path><path fill="#D75D7F" d="M 893 429 A 4 4 0 1 1 892.9999980000001 428.99600000066664 Z" class="highcharts-point highcharts-color-5"></path><path fill="#D75D7F" d="M 931 434 A 4 4 0 1 1 930.9999980000001 433.99600000066664 Z" class="highcharts-point highcharts-color-5"></path><path fill="#D75D7F" d="M 969 410 A 4 4 0 1 1 968.9999980000001 409.99600000066664 Z" class="highcharts-point highcharts-color-5"></path><path fill="#D75D7F" d="M 1007 379 A 4 4 0 1 1 1006.9999980000001 378.99600000066664 Z" class="highcharts-point highcharts-color-5"></path><path fill="#D75D7F" d="M 1106 350 A 4 4 0 1 1 1105.9999980000002 349.99600000066664 Z" class="highcharts-point highcharts-color-5"></path><path fill="#D75D7F" d="M 1152 326 A 4 4 0 1 1 1151.9999980000002 325.99600000066664 Z" class="highcharts-point highcharts-color-5"></path><path fill="#D75D7F" d="M 1205 281 A 4 4 0 1 1 1204.9999980000002 280.99600000066664 Z" class="highcharts-point highcharts-color-5"></path><path fill="#D75D7F" d="M 1251 246 A 4 4 0 1 1 1250.9999980000002 245.99600000066667 Z" class="highcharts-point highcharts-color-5"></path><path fill="#D75D7F" d="M 1297 205 A 4 4 0 1 1 1296.9999980000002 204.99600000066667 Z" class="highcharts-point highcharts-color-5"></path><path fill="#D75D7F" d="M 1342 148 A 4 4 0 1 1 1341.9999980000002 147.99600000066667 Z" class="highcharts-point highcharts-color-5"></path><path fill="#D75D7F" d="M 1380 98 A 4 4 0 1 1 1379.9999980000002 97.99600000066667 Z" class="highcharts-point highcharts-color-5"></path><path fill="#D75D7F" d="M 1418 58 A 4 4 0 1 1 1417.9999980000002 57.99600000066666 Z" class="highcharts-point highcharts-color-5"></path></g></g><g class="highcharts-label" opacity="1" data-z-index="3" transform="translate(855,463)"><path fill="none" class="highcharts-label-box" d="M 0 0" stroke="#ECED36" stroke-width="1"></path><text x="0" data-z-index="1" style="font-weight:bold;color:#ECED36;fill:#ECED36;" y="12"><tspan>Population active agricole</tspan></text></g><g class="highcharts-label" opacity="1" data-z-index="3" transform="translate(694,426)"><path fill="none" class="highcharts-label-box" d="M 0 0" stroke="#4C65A8" stroke-width="1"></path><text x="0" data-z-index="1" style="font-weight:bold;color:#4C65A8;fill:#4C65A8;" y="12"><tspan>Population active de l'industrie et du bâtiment</tspan></text></g><g class="highcharts-label" opacity="1" data-z-index="3" transform="translate(993,494)"><path fill="none" class="highcharts-label-box" d="M 0 0" stroke="#F04327" stroke-width="1"></path><text x="0" data-z-index="1" style="font-weight:bold;color:#F04327;fill:#F04327;" y="12"><tspan>Population active du tertaire</tspan></text></g><g class="highcharts-label" opacity="1" data-z-index="3" transform="translate(1384,747)"><path fill="none" class="highcharts-label-box" d="M 0 0" stroke="#CDE034" stroke-width="1"></path><text x="0" data-z-index="1" style="font-weight:bold;color:#CDE034;fill:#CDE034;" y="12"><tspan>Emploi agricole</tspan></text></g><g class="highcharts-label" opacity="1" data-z-index="3" transform="translate(1270,499)"><path fill="none" class="highcharts-label-box" d="M 0 0" stroke="#41A1B5" stroke-width="1"></path><text x="0" data-z-index="1" style="font-weight:bold;color:#41A1B5;fill:#41A1B5;" y="12"><tspan>Emploi de l'industrie et du bâtiment</tspan></text></g><g class="highcharts-label" opacity="1" data-z-index="3" transform="translate(1368,100)"><path fill="none" class="highcharts-label-box" d="M 0 0" stroke="#D75D7F" stroke-width="1"></path><text x="0" data-z-index="1" style="font-weight:bold;color:#D75D7F;fill:#D75D7F;" y="12"><tspan>Emploi du tertiaire</tspan></text></g><text x="750" text-anchor="middle" class="highcharts-title" data-z-index="4" style="color:#333333;font-size:18px;fill:#333333;" y="24"><tspan>Population active et emploi par grand secteur de 1806 à 1990</tspan></text><text x="750" text-anchor="middle" class="highcharts-subtitle" data-z-index="4" style="color:#666666;fill:#666666;" y="44"><tspan>Source : INSEE</tspan></text><g class="highcharts-legend" data-z-index="7" transform="translate(144,860)"><rect fill="none" class="highcharts-legend-box" rx="0" ry="0" x="0" y="0" width="1211" height="25" visibility="visible"></rect><g data-z-index="1"><g><g class="highcharts-legend-item highcharts-spline-series highcharts-color-0 highcharts-series-0" data-z-index="1" transform="translate(8,3)"><path fill="none" d="M 0 11 L 16 11" class="highcharts-graph" stroke="#ECED36" stroke-width="2"></path><path fill="#ECED36" d="M 12 11 A 4 4 0 1 1 11.999998000000167 10.996000000666664 Z" class="highcharts-point"></path><text x="21" style="color:#333333;cursor:pointer;font-size:12px;font-weight:bold;fill:#333333;" text-anchor="start" data-z-index="2" y="15"><tspan>Population active agricole</tspan></text></g><g class="highcharts-legend-item highcharts-spline-series highcharts-color-1 highcharts-series-1" data-z-index="1" transform="translate(197.703125,3)"><path fill="none" d="M 0 11 L 16 11" class="highcharts-graph" stroke="#4C65A8" stroke-width="2"></path><path fill="#4C65A8" d="M 8 7 L 12 11 8 15 4 11 Z" class="highcharts-point"></path><text x="21" y="15" style="color:#333333;cursor:pointer;font-size:12px;font-weight:bold;fill:#333333;" text-anchor="start" data-z-index="2"><tspan>Population active de l'industrie et du bâtiment</tspan></text></g><g class="highcharts-legend-item highcharts-spline-series highcharts-color-2 highcharts-series-2" data-z-index="1" transform="translate(500.921875,3)"><path fill="none" d="M 0 11 L 16 11" class="highcharts-graph" stroke="#F04327" stroke-width="2"></path><path fill="#F04327" d="M 4 7 L 12 7 12 15 4 15 Z" class="highcharts-point"></path><text x="21" y="15" style="color:#333333;cursor:pointer;font-size:12px;font-weight:bold;fill:#333333;" text-anchor="start" data-z-index="2"><tspan>Population active du tertaire</tspan></text></g><g class="highcharts-legend-item highcharts-spline-series highcharts-color-3 highcharts-series-3" data-z-index="1" transform="translate(703.28125,3)"><path fill="none" d="M 0 11 L 16 11" class="highcharts-graph" stroke="#CDE034" stroke-width="2"></path><path fill="#CDE034" d="M 8 7 L 12 15 4 15 Z" class="highcharts-point"></path><text x="21" y="15" style="color:#333333;cursor:pointer;font-size:12px;font-weight:bold;fill:#333333;" text-anchor="start" data-z-index="2"><tspan>Emploi agricole</tspan></text></g><g class="highcharts-legend-item highcharts-spline-series highcharts-color-4 highcharts-series-4" data-z-index="1" transform="translate(833.625,3)"><path fill="none" d="M 0 11 L 16 11" class="highcharts-graph" stroke="#41A1B5" stroke-width="2"></path><path fill="#41A1B5" d="M 4 7 L 12 7 8 15 Z" class="highcharts-point"></path><text x="21" y="15" style="color:#333333;cursor:pointer;font-size:12px;font-weight:bold;fill:#333333;" text-anchor="start" data-z-index="2"><tspan>Emploi de l'industrie et du bâtiment</tspan></text></g><g class="highcharts-legend-item highcharts-spline-series highcharts-color-5 highcharts-series-5" data-z-index="1" transform="translate(1077.484375,3)"><path fill="none" d="M 0 11 L 16 11" class="highcharts-graph" stroke="#D75D7F" stroke-width="2"></path><path fill="#D75D7F" d="M 12 11 A 4 4 0 1 1 11.999998000000167 10.996000000666664 Z" class="highcharts-point"></path><text x="21" y="15" style="color:#333333;cursor:pointer;font-size:12px;font-weight:bold;fill:#333333;" text-anchor="start" data-z-index="2"><tspan>Emploi du tertiaire</tspan></text></g></g></g></g><g class="highcharts-axis-labels highcharts-xaxis-labels " data-z-index="7"><text x="105.46635258523" style="color:#666666;cursor:default;font-size:11px;fill:#666666;" text-anchor="middle" transform="translate(0,0)" y="828" opacity="1">1810</text><text x="181.59730105866" style="color:#666666;cursor:default;font-size:11px;fill:#666666;" text-anchor="middle" transform="translate(0,0)" y="828" opacity="1">1820</text><text x="257.74909590352" style="color:#666666;cursor:default;font-size:11px;fill:#666666;" text-anchor="middle" transform="translate(0,0)" y="828" opacity="1">1830</text><text x="333.88004437695" style="color:#666666;cursor:default;font-size:11px;fill:#666666;" text-anchor="middle" transform="translate(0,0)" y="828" opacity="1">1840</text><text x="410.03183922181" style="color:#666666;cursor:default;font-size:11px;fill:#666666;" text-anchor="middle" transform="translate(0,0)" y="828" opacity="1">1850</text><text x="486.16278769524" style="color:#666666;cursor:default;font-size:11px;fill:#666666;" text-anchor="middle" transform="translate(0,0)" y="828" opacity="1">1860</text><text x="562.31458254011" style="color:#666666;cursor:default;font-size:11px;fill:#666666;" text-anchor="middle" transform="translate(0,0)" y="828" opacity="1">1870</text><text x="638.44553101354" style="color:#666666;cursor:default;font-size:11px;fill:#666666;" text-anchor="middle" transform="translate(0,0)" y="828" opacity="1">1880</text><text x="714.5973258584" style="color:#666666;cursor:default;font-size:11px;fill:#666666;" text-anchor="middle" transform="translate(0,0)" y="828" opacity="1">1890</text><text x="790.72827433183" style="color:#666666;cursor:default;font-size:11px;fill:#666666;" text-anchor="middle" transform="translate(0,0)" y="828" opacity="1">1900</text><text x="866.85922280526" style="color:#666666;cursor:default;font-size:11px;fill:#666666;" text-anchor="middle" transform="translate(0,0)" y="828" opacity="1">1910</text><text x="942.99017127869" style="color:#666666;cursor:default;font-size:11px;fill:#666666;" text-anchor="middle" transform="translate(0,0)" y="828" opacity="1">1920</text><text x="1019.1419661236" style="color:#666666;cursor:default;font-size:11px;fill:#666666;" text-anchor="middle" transform="translate(0,0)" y="828" opacity="1">1930</text><text x="1095.272914597" style="color:#666666;cursor:default;font-size:11px;fill:#666666;" text-anchor="middle" transform="translate(0,0)" y="828" opacity="1">1940</text><text x="1171.4247094418" style="color:#666666;cursor:default;font-size:11px;fill:#666666;" text-anchor="middle" transform="translate(0,0)" y="828" opacity="1">1950</text><text x="1247.5556579153" style="color:#666666;cursor:default;font-size:11px;fill:#666666;" text-anchor="middle" transform="translate(0,0)" y="828" opacity="1">1960</text><text x="1323.7074527601" style="color:#666666;cursor:default;font-size:11px;fill:#666666;" text-anchor="middle" transform="translate(0,0)" y="828" opacity="1">1970</text><text x="1399.8384012336" style="color:#666666;cursor:default;font-size:11px;fill:#666666;" text-anchor="middle" transform="translate(0,0)" y="828" opacity="1">1980</text><text x="1475.9901960784" style="color:#666666;cursor:default;font-size:11px;fill:#666666;" text-anchor="middle" transform="translate(0,0)" y="828" opacity="1">1990</text></g><g class="highcharts-axis-labels highcharts-yaxis-labels " data-z-index="7"><text x="46" style="color:#666666;cursor:default;font-size:11px;fill:#666666;" text-anchor="end" transform="translate(0,0)" y="814" opacity="1">0</text><text x="46" style="color:#666666;cursor:default;font-size:11px;fill:#666666;" text-anchor="end" transform="translate(0,0)" y="760" opacity="1">5</text><text x="46" style="color:#666666;cursor:default;font-size:11px;fill:#666666;" text-anchor="end" transform="translate(0,0)" y="707" opacity="1">10</text><text x="46" style="color:#666666;cursor:default;font-size:11px;fill:#666666;" text-anchor="end" transform="translate(0,0)" y="653" opacity="1">15</text><text x="46" style="color:#666666;cursor:default;font-size:11px;fill:#666666;" text-anchor="end" transform="translate(0,0)" y="600" opacity="1">20</text><text x="46" style="color:#666666;cursor:default;font-size:11px;fill:#666666;" text-anchor="end" transform="translate(0,0)" y="546" opacity="1">25</text><text x="46" style="color:#666666;cursor:default;font-size:11px;fill:#666666;" text-anchor="end" transform="translate(0,0)" y="493" opacity="1">30</text><text x="46" style="color:#666666;cursor:default;font-size:11px;fill:#666666;" text-anchor="end" transform="translate(0,0)" y="439" opacity="1">35</text><text x="46" style="color:#666666;cursor:default;font-size:11px;fill:#666666;" text-anchor="end" transform="translate(0,0)" y="385" opacity="1">40</text><text x="46" style="color:#666666;cursor:default;font-size:11px;fill:#666666;" text-anchor="end" transform="translate(0,0)" y="332" opacity="1">45</text><text x="46" style="color:#666666;cursor:default;font-size:11px;fill:#666666;" text-anchor="end" transform="translate(0,0)" y="278" opacity="1">50</text><text x="46" style="color:#666666;cursor:default;font-size:11px;fill:#666666;" text-anchor="end" transform="translate(0,0)" y="225" opacity="1">55</text><text x="46" style="color:#666666;cursor:default;font-size:11px;fill:#666666;" text-anchor="end" transform="translate(0,0)" y="171" opacity="1">60</text><text x="46" style="color:#666666;cursor:default;font-size:11px;fill:#666666;" text-anchor="end" transform="translate(0,0)" y="118" opacity="1">65</text><text x="46" style="color:#666666;cursor:default;font-size:11px;fill:#666666;" text-anchor="end" transform="translate(0,0)" y="64" opacity="1">70</text></g><text x="1490" class="highcharts-credits" text-anchor="end" data-z-index="8" style="cursor:pointer;color:#999999;font-size:9px;fill:#999999;" y="895">Highcharts.com</text></svg>